# This file uses centimeters as units for non-parametric coordinates.

mtllib platform brick.mtl
g default
v 1.529044 1.151721 -2.053537
v 1.529044 1.036559 -2.281683
v 1.529044 1.036559 2.281683
v 1.529044 1.151721 2.053538
v 1.529044 -1.036558 -2.281683
v 1.529044 -1.151719 -2.053537
v 1.529044 -1.151719 2.053538
v 1.529044 -0.710173 2.281683
v -1.368107 -1.036558 -2.281683
v -1.368107 -1.151719 -2.053537
v -1.529039 -1.036558 -2.053537
v -1.529039 -1.036558 2.053538
v -1.368107 -1.151719 2.053538
v -1.368107 -0.710173 2.281683
v -1.368107 1.036559 -2.281683
v -1.529039 1.036559 -2.053537
v -1.368107 1.151721 -2.053537
v -1.368107 1.151721 2.053538
v -1.529039 1.036559 2.053538
v -1.368107 1.036559 2.281683
v 1.529044 1.787188 -3.186588
v 1.529044 1.608485 -3.540613
v 1.529044 1.787188 3.186588
v 1.529044 -1.608486 -3.540613
v 1.529044 1.608485 3.540613
v 1.529044 -1.102015 3.540613
v 1.529044 -1.787187 -3.186588
v 1.529044 -1.787187 3.186588
v 1.529044 1.455703 -2.595544
v 1.529044 1.455703 2.595544
v 1.529044 1.310146 2.883905
v 1.529044 -0.897614 2.883905
v 1.529044 -1.455702 2.595544
v 1.529044 -1.455702 -2.595544
v 1.529044 -1.310146 -2.883905
v 1.529044 1.310146 -2.883905
v 1.529044 1.183511 -2.110218
v 1.529044 1.183511 2.110219
v 1.529044 1.065170 2.344661
v 1.529044 -0.729775 2.344661
v 1.529044 -1.183508 2.110219
v 1.529044 -1.183508 -2.110218
v 1.529044 -1.065169 -2.344661
v 1.529044 1.065170 -2.344661
v 1.304079 1.183511 -2.110218
v 1.304079 1.183511 2.110219
v 1.304079 1.455703 2.595544
v 1.304079 1.455703 -2.595544
v 1.304079 1.065170 2.344661
v 1.304079 1.310146 2.883905
v 1.304079 -0.729775 2.344661
v 1.304079 -0.897614 2.883905
v 1.304079 -1.183508 2.110219
v 1.304079 -1.455702 2.595544
v 1.304079 -1.183508 -2.110218
v 1.304079 -1.455702 -2.595544
v 1.304079 -1.065169 -2.344661
v 1.304079 -1.310146 -2.883905
v 1.304079 1.065170 -2.344661
v 1.304079 1.310146 -2.883905
vt 0.387499 0.987501
vt 0.375000 0.987501
vt 0.375000 0.762499
vt 0.387499 0.762499
vt 0.625000 0.987501
vt 0.612501 0.987501
vt 0.612501 0.762499
vt 0.625000 0.762499
vt 0.375000 0.262499
vt 0.387499 0.262499
vt 0.387499 0.487501
vt 0.375000 0.487501
vt 0.612501 0.262499
vt 0.625000 0.262499
vt 0.625000 0.487501
vt 0.612501 0.487501
vt 0.375000 0.512499
vt 0.387499 0.512499
vt 0.387499 0.737501
vt 0.375000 0.737501
vt 0.612501 0.512499
vt 0.625000 0.512499
vt 0.625000 0.737501
vt 0.612501 0.737501
vt 0.637499 0.012499
vt 0.862501 0.012499
vt 0.862501 0.237501
vt 0.637499 0.237501
vt 0.137499 0.012499
vt 0.362501 0.012499
vt 0.362501 0.237501
vt 0.137499 0.237501
vt 0.000000 0.000000
vt 1.000000 0.000000
vt 1.000000 1.000000
vt 0.000000 1.000000
vt 0.000000 0.000000
vt 1.000000 0.000000
vt 1.000000 1.000000
vt 0.000000 1.000000
vt 0.000000 0.000000
vt 1.000000 0.000000
vt 1.000000 1.000000
vt 0.000000 1.000000
vt 0.000000 0.000000
vt 1.000000 0.000000
vt 1.000000 1.000000
vt 0.000000 1.000000
vt 0.000000 0.000000
vt 1.000000 0.000000
vt 1.000000 1.000000
vt 0.000000 1.000000
vt 0.000000 0.000000
vt 1.000000 0.000000
vt 1.000000 1.000000
vt 0.000000 1.000000
vt 0.000000 0.000000
vt 1.000000 0.000000
vt 1.000000 1.000000
vt 0.000000 1.000000
vt 0.000000 0.000000
vt 1.000000 0.000000
vt 1.000000 1.000000
vt 0.000000 1.000000
vt 1.000000 0.478360
vt 0.000000 0.478360
vt 1.000000 0.478360
vt 0.000000 0.478360
vt 1.000000 0.478360
vt 0.000000 0.478360
vt 1.000000 0.478360
vt 0.000000 0.478360
vt 1.000000 0.478360
vt 0.000000 0.478360
vt 1.000000 0.478360
vt 0.000000 0.478360
vt 1.000000 0.478360
vt 0.000000 0.478360
vt 1.000000 0.478360
vt 0.000000 0.478360
vt 1.000000 0.050025
vt 0.000000 0.050025
vt 1.000000 0.050025
vt 0.000000 0.050025
vt 1.000000 0.050025
vt 0.000000 0.050025
vt 1.000000 0.050025
vt 0.000000 0.050025
vt 1.000000 0.050025
vt 0.000000 0.050025
vt 1.000000 0.050025
vt 0.000000 0.050025
vt 1.000000 0.050025
vt 0.000000 0.050025
vt 1.000000 0.050025
vt 0.000000 0.050025
vt 0.000000 0.050025
vt 1.000000 0.050025
vt 1.000000 0.478360
vt 0.000000 0.478360
vt 0.000000 0.050025
vt 1.000000 0.050025
vt 1.000000 0.478360
vt 0.000000 0.478360
vt 0.000000 0.050025
vt 1.000000 0.050025
vt 1.000000 0.478360
vt 0.000000 0.478360
vt 0.000000 0.050025
vt 1.000000 0.050025
vt 1.000000 0.478360
vt 0.000000 0.478360
vt 0.000000 0.050025
vt 1.000000 0.050025
vt 1.000000 0.478360
vt 0.000000 0.478360
vt 0.000000 0.050025
vt 1.000000 0.050025
vt 1.000000 0.478360
vt 0.000000 0.478360
vt 0.000000 0.050025
vt 1.000000 0.050025
vt 1.000000 0.478360
vt 0.000000 0.478360
vt 0.000000 0.050025
vt 1.000000 0.050025
vt 1.000000 0.478360
vt 0.000000 0.478360
vn -0.000000 0.999647 -0.026555
vn -0.000000 0.103696 -0.994609
vn -0.071231 0.099544 -0.992480
vn -0.036522 0.999001 -0.025763
vn 0.000000 0.121624 0.992576
vn 0.000000 0.999647 0.026555
vn -0.036522 0.999001 0.025763
vn -0.076714 0.116237 0.990255
vn -0.000000 -0.103696 -0.994609
vn -0.000000 -0.999647 -0.026555
vn -0.036522 -0.999001 -0.025763
vn -0.071231 -0.099544 -0.992480
vn 0.000000 -0.994853 0.101327
vn 0.000000 -0.103696 0.994609
vn -0.098471 -0.096604 0.990440
vn -0.036193 -0.994539 0.097890
vn -0.996840 -0.070911 -0.035794
vn -0.996840 0.070911 -0.035794
vn -0.997087 -0.073815 0.019200
vn -0.996911 0.071196 0.033162
vn -1.000000 0.000000 0.000000
vn -1.000000 0.000000 0.000000
vn -1.000000 0.000000 0.000000
vn -1.000000 0.000000 0.000000
vn -1.000000 0.000000 0.000000
vn -1.000000 0.000000 0.000000
vn -1.000000 0.000000 0.000000
vn -1.000000 0.000000 0.000000
vn -1.000000 -0.000000 -0.000000
vn -1.000000 -0.000000 -0.000000
vn -1.000000 -0.000000 -0.000000
vn -1.000000 -0.000000 -0.000000
vn -1.000000 0.000000 0.000000
vn -1.000000 0.000000 0.000000
vn -1.000000 0.000000 0.000000
vn -1.000000 0.000000 0.000000
vn -1.000000 0.000000 0.000000
vn -1.000000 0.000000 0.000000
vn -1.000000 0.000000 0.000000
vn -1.000000 0.000000 0.000000
vn -1.000000 0.000000 0.000002
vn -1.000000 0.000000 0.000002
vn -1.000000 0.000000 0.000002
vn -1.000000 0.000000 0.000002
vn -1.000000 0.000000 0.000000
vn -1.000000 0.000000 0.000000
vn -1.000000 0.000000 0.000000
vn -1.000000 0.000000 0.000000
vn -1.000000 0.000000 0.000000
vn -1.000000 0.000000 0.000000
vn -1.000000 0.000000 0.000000
vn -1.000000 0.000000 0.000000
vn -1.000000 0.000000 0.000000
vn -1.000000 0.000000 0.000000
vn -1.000000 0.000000 0.000000
vn -1.000000 0.000000 0.000000
vn -1.000000 -0.000000 -0.000003
vn -1.000000 -0.000000 -0.000003
vn -1.000000 -0.000000 -0.000003
vn -1.000000 -0.000000 -0.000003
vn -1.000000 0.000000 0.000001
vn -1.000000 0.000000 0.000001
vn -1.000000 0.000000 0.000001
vn -1.000000 0.000000 0.000001
vn -1.000000 0.000000 0.000002
vn -1.000000 0.000000 0.000002
vn -1.000000 0.000000 0.000002
vn -1.000000 0.000000 0.000002
vn -1.000000 0.000000 0.000000
vn -1.000000 0.000000 0.000000
vn -1.000000 0.000000 0.000000
vn -1.000000 0.000000 0.000000
vn -1.000000 0.000000 0.000000
vn -1.000000 0.000000 0.000000
vn -1.000000 0.000000 0.000000
vn -1.000000 0.000000 0.000000
vn -1.000000 0.000000 0.000001
vn -1.000000 0.000000 0.000001
vn -1.000000 0.000000 0.000001
vn -1.000000 0.000000 0.000001
vn -1.000000 0.000000 0.000003
vn -1.000000 0.000000 0.000003
vn -1.000000 0.000000 0.000003
vn -1.000000 0.000000 0.000003
vn -1.000000 0.000000 0.000000
vn -1.000000 0.000000 0.000000
vn -1.000000 0.000000 0.000000
vn -1.000000 0.000000 0.000000
vn -1.000000 0.000000 0.000003
vn -1.000000 0.000000 0.000003
vn -1.000000 0.000000 0.000003
vn -1.000000 0.000000 0.000003
vn -1.000000 0.000000 0.000018
vn -1.000000 0.000000 0.000018
vn -1.000000 0.000000 0.000018
vn -1.000000 0.000000 0.000018
vn -1.000000 -0.000000 -0.000005
vn -1.000000 -0.000000 -0.000005
vn -1.000000 -0.000000 -0.000005
vn -1.000000 -0.000000 -0.000005
vn -1.000000 0.000000 0.000000
vn -1.000000 0.000000 0.000000
vn -1.000000 0.000000 0.000000
vn -1.000000 0.000000 0.000000
vn -1.000000 0.000000 0.000006
vn -1.000000 0.000000 0.000006
vn -1.000000 0.000000 0.000006
vn -1.000000 0.000000 0.000006
vn -1.000000 -0.000000 -0.000015
vn -1.000000 -0.000000 -0.000015
vn -1.000000 -0.000000 -0.000015
vn -1.000000 -0.000000 -0.000015
vn -1.000000 0.000000 0.000003
vn -1.000000 0.000000 0.000003
vn -1.000000 0.000000 0.000003
vn -1.000000 0.000000 0.000003
vn 0.000000 -1.000000 0.000000
vn 0.000000 -1.000000 0.000000
vn 0.000000 -1.000000 0.000000
vn 0.000000 -1.000000 0.000000
vn -0.000000 1.000000 -0.000000
vn -0.000000 1.000000 -0.000000
vn -0.000000 1.000000 -0.000000
vn -0.000000 1.000000 -0.000000
vn -0.000000 -0.892716 -0.450620
vn -0.000000 -0.892716 -0.450620
vn -0.000000 -0.892716 -0.450620
vn -0.000000 -0.892716 -0.450620
vn 0.000000 0.892716 0.450620
vn 0.000000 0.892716 0.450620
vn 0.000000 0.892716 0.450620
vn 0.000000 0.892716 0.450620
vn -0.000000 -0.000000 -1.000000
vn -0.000000 -0.000000 -1.000000
vn -0.000000 -0.000000 -1.000000
vn -0.000000 -0.000000 -1.000000
vn 0.000000 0.000000 1.000000
vn 0.000000 0.000000 1.000000
vn 0.000000 0.000000 1.000000
vn 0.000000 0.000000 1.000000
vn -0.000000 0.459041 -0.888415
vn -0.000000 0.459041 -0.888415
vn -0.000000 0.459041 -0.888415
vn -0.000000 0.459041 -0.888415
vn 0.000000 -0.459041 0.888415
vn 0.000000 -0.459041 0.888415
vn 0.000000 -0.459041 0.888415
vn 0.000000 -0.459041 0.888415
vn -0.000000 1.000000 -0.000000
vn -0.000000 1.000000 -0.000000
vn -0.000000 1.000000 -0.000000
vn -0.000000 1.000000 -0.000000
vn 0.000000 -1.000000 0.000000
vn 0.000000 -1.000000 0.000000
vn 0.000000 -1.000000 0.000000
vn 0.000000 -1.000000 0.000000
vn 0.000000 0.892718 0.450615
vn 0.000000 0.892718 0.450615
vn 0.000000 0.892718 0.450615
vn 0.000000 0.892718 0.450615
vn -0.000000 -0.892719 -0.450614
vn -0.000000 -0.892719 -0.450614
vn -0.000000 -0.892719 -0.450614
vn -0.000000 -0.892719 -0.450614
vn 0.000000 0.000000 1.000000
vn 0.000000 0.000000 1.000000
vn 0.000000 0.000000 1.000000
vn 0.000000 0.000000 1.000000
vn -0.000000 -0.000000 -1.000000
vn -0.000000 -0.000000 -1.000000
vn -0.000000 -0.000000 -1.000000
vn -0.000000 -0.000000 -1.000000
vn 0.000000 -0.892716 0.450620
vn 0.000000 -0.892716 0.450620
vn 0.000000 -0.892716 0.450620
vn 0.000000 -0.892716 0.450620
vn -0.000000 0.892716 -0.450620
vn -0.000000 0.892716 -0.450620
vn -0.000000 0.892716 -0.450620
vn -0.000000 0.892716 -0.450620
s 1
g pasted__polySurface44 pasted__pasted__pasted__pasted__pasted__pasted__group17_pasted__group15_pasted__pasted__group14_pasted__pasted__pasted__group13_pasted__pasted__pasted__pasted__group12_pasted__pasted__pasted__pasted__pasted__group11_pasted__pasted__pasted__pasted__pasted__pasted__group_pasted__pasted__pasted__pasted__pasted__pasted__pasted__pCube2 pasted__pasted__pasted__pasted__pasted__group22 pasted__pasted__pasted__pasted__group23 pasted__pasted__pasted__group37 pasted__pasted__group49 pasted__group50 group122
usemtl pasted__lambert4SG3
f 1/1/1 2/2/2 15/3/3 17/4/4
f 3/5/5 4/6/6 18/7/7 20/8/8
f 5/9/9 6/10/10 10/11/11 9/12/12
f 7/13/13 8/14/14 14/15/15 13/16/16
f 9/17/12 11/18/17 16/19/18 15/20/3
f 11/18/17 10/11/11 13/16/16 12/21/19
f 12/21/19 14/22/15 20/23/8 19/24/20
f 17/4/4 16/19/18 19/24/20 18/7/7
f 6/10/10 7/13/13 13/16/16 10/11/11
f 11/18/17 12/21/19 19/24/20 16/19/18
f 17/4/4 18/7/7 4/6/6 1/1/1
f 3/25/5 20/26/8 14/27/15 8/28/14
f 15/29/3 2/30/2 5/31/9 9/32/12
f 9/12/12 10/11/11 11/18/17
f 12/21/19 13/16/16 14/15/15
f 15/20/3 16/19/18 17/4/4
f 18/7/7 19/24/20 20/23/8
s off
f 36/80/21 29/65/22 21/35/23 22/36/24
f 29/66/25 30/67/26 23/39/27 21/40/28
f 35/78/29 36/79/30 22/43/31 24/44/32
f 30/68/33 31/69/34 25/47/35 23/48/36
f 31/70/37 32/71/38 26/51/39 25/52/40
f 34/76/41 35/77/42 24/55/43 27/56/44
f 33/74/45 34/75/46 27/59/47 28/60/48
f 32/72/49 33/73/50 28/63/51 26/64/52
f 45/97/53 46/98/54 47/99/55 48/100/56
f 46/101/57 49/102/58 50/103/59 47/104/60
f 49/105/61 51/106/62 52/107/63 50/108/64
f 51/109/65 53/110/66 54/111/67 52/112/68
f 53/113/69 55/114/70 56/115/71 54/116/72
f 55/117/73 57/118/74 58/119/75 56/120/76
f 57/121/77 59/122/78 60/123/79 58/124/80
f 59/125/81 45/126/82 48/127/83 60/128/84
f 1/37/85 4/38/86 38/83/87 37/82/88
f 4/45/89 3/46/90 39/85/91 38/84/92
f 3/49/93 8/50/94 40/87/95 39/86/96
f 8/61/97 7/62/98 41/89/99 40/88/100
f 7/57/101 6/58/102 42/91/103 41/90/104
f 6/53/105 5/54/106 43/93/107 42/92/108
f 5/41/109 2/42/110 44/95/111 43/94/112
f 2/33/113 1/34/114 37/81/115 44/96/116
f 37/82/117 38/83/118 46/98/119 45/97/120
f 30/67/121 29/66/122 48/100/123 47/99/124
f 38/84/125 39/85/126 49/102/127 46/101/128
f 31/69/129 30/68/130 47/104/131 50/103/132
f 39/86/133 40/87/134 51/106/135 49/105/136
f 32/71/137 31/70/138 50/108/139 52/107/140
f 40/88/141 41/89/142 53/110/143 51/109/144
f 33/73/145 32/72/146 52/112/147 54/111/148
f 41/90/149 42/91/150 55/114/151 53/113/152
f 34/75/153 33/74/154 54/116/155 56/115/156
f 42/92/157 43/93/158 57/118/159 55/117/160
f 35/77/161 34/76/162 56/120/163 58/119/164
f 43/94/165 44/95/166 59/122/167 57/121/168
f 36/79/169 35/78/170 58/124/171 60/123/172
f 44/96/173 37/81/174 45/126/175 59/125/176
f 29/65/177 36/80/178 60/128/179 48/127/180
