# This file uses centimeters as units for non-parametric coordinates.

mtllib platform small.mtl
g default
v -0.928520 0.218899 0.790987
v 0.698841 0.218899 0.790987
v -0.928520 0.616971 0.790987
v 0.698841 0.616971 0.790987
v -0.928520 0.616971 -0.790987
v 0.698841 0.616971 -0.790987
v -0.928520 0.218899 -0.790987
v 0.698841 0.218899 -0.790987
v -0.796850 -0.057706 -0.650170
v 0.553984 0.016643 -0.650170
v 0.553984 0.016643 0.650170
v -0.796850 -0.057706 0.650170
v -0.000982 -0.616971 -0.451789
v 0.928520 -0.616971 -0.451789
v 0.928520 -0.616971 0.451789
v -0.000982 -0.616971 0.451789
v -0.799129 0.072412 -0.618701
v 0.677112 0.072412 -0.618701
v 0.677112 0.072412 0.618701
v -0.799129 0.072412 0.618701
v -0.928520 0.616971 -0.316395
v 0.698841 0.616971 -0.316395
v 0.698841 0.218899 -0.316395
v 0.677112 0.072412 -0.247480
v 0.553984 0.016643 -0.260068
v 0.928520 -0.616971 -0.180716
v -0.000982 -0.616971 -0.180716
v -0.796850 -0.057705 -0.260068
v -0.799129 0.072412 -0.247480
v -0.928520 0.218899 -0.316395
v -0.928520 0.616971 0.181927
v 0.698841 0.616971 0.181927
v 0.698841 0.218899 0.181927
v 0.677112 0.072412 0.142301
v 0.553984 0.016643 0.149539
v 0.928520 -0.616971 0.103911
v -0.000982 -0.616971 0.103911
v -0.796850 -0.057705 0.149539
v -0.799129 0.072412 0.142301
v -0.928520 0.218899 0.181927
vt 0.375000 0.000000
vt 0.625000 0.000000
vt 0.375000 0.250000
vt 0.625000 0.250000
vt 0.375000 0.500000
vt 0.625000 0.500000
vt 0.375000 0.750000
vt 0.625000 0.750000
vt 0.375000 1.000000
vt 0.625000 1.000000
vt 0.875000 0.000000
vt 0.875000 0.250000
vt 0.125000 0.000000
vt 0.125000 0.250000
vt 0.375000 0.750000
vt 0.625000 0.750000
vt 0.625000 1.000000
vt 0.375000 1.000000
vt 0.375000 0.750000
vt 0.625000 0.750000
vt 0.625000 1.000000
vt 0.375000 1.000000
vt 0.375000 0.750000
vt 0.625000 0.750000
vt 0.625000 1.000000
vt 0.375000 1.000000
vt 0.200000 0.250000
vt 0.375000 0.425000
vt 0.625000 0.425000
vt 0.800000 0.250000
vt 0.625000 0.825000
vt 0.800000 0.000000
vt 0.625000 0.825000
vt 0.625000 0.825000
vt 0.625000 0.825000
vt 0.375000 0.825000
vt 0.375000 0.825000
vt 0.375000 0.825000
vt 0.200000 0.000000
vt 0.375000 0.825000
vt 0.278750 0.250000
vt 0.375000 0.346250
vt 0.625000 0.346250
vt 0.721250 0.250000
vt 0.625000 0.903750
vt 0.721250 0.000000
vt 0.625000 0.903750
vt 0.625000 0.903750
vt 0.625000 0.903750
vt 0.375000 0.903750
vt 0.375000 0.903750
vt 0.375000 0.903750
vt 0.278750 0.000000
vt 0.375000 0.903750
vn 0.000000 0.000000 1.000000
vn 0.000000 0.000000 1.000000
vn 0.000000 0.000000 1.000000
vn 0.000000 0.000000 1.000000
vn 0.000000 1.000000 0.000000
vn 0.000000 1.000000 0.000000
vn 0.000000 1.000000 0.000000
vn 0.000000 1.000000 0.000000
vn 0.000000 0.000000 -1.000000
vn 0.000000 0.000000 -1.000000
vn 0.000000 0.000000 -1.000000
vn 0.000000 0.000000 -1.000000
vn 0.000000 -1.000000 0.000000
vn 0.000000 -1.000000 0.000000
vn 0.000000 -1.000000 0.000000
vn 0.000000 -1.000000 0.000000
vn 1.000000 0.000000 0.000000
vn 1.000000 0.000000 0.000000
vn 1.000000 0.000000 0.000000
vn 1.000000 0.000000 0.000000
vn -1.000000 0.000000 0.000000
vn -1.000000 0.000000 0.000000
vn -1.000000 0.000000 0.000000
vn -1.000000 0.000000 0.000000
vn -0.008565 0.325678 -0.945442
vn -0.008565 0.325678 -0.945442
vn -0.008565 0.325678 -0.945442
vn -0.008565 0.325678 -0.945442
vn 0.412583 -0.910920 0.000000
vn 0.412583 -0.910920 0.000000
vn 0.412583 -0.910920 0.000000
vn 0.412583 -0.910920 0.000000
vn -0.008565 0.325678 0.945442
vn -0.008565 0.325678 0.945442
vn -0.008565 0.325678 0.945442
vn -0.008565 0.325678 0.945442
vn -0.999847 -0.017516 0.000000
vn -0.999847 -0.017516 0.000000
vn -0.999847 -0.017516 0.000000
vn -0.999847 -0.017516 0.000000
vn 0.010001 -0.306744 -0.951740
vn 0.010001 -0.306744 -0.951740
vn 0.010001 -0.306744 -0.951740
vn 0.010001 -0.306744 -0.951740
vn 0.860850 0.508859 0.000000
vn 0.860850 0.508859 0.000000
vn 0.860850 0.508859 0.000000
vn 0.860850 0.508859 0.000000
vn 0.010001 -0.306744 0.951740
vn 0.010001 -0.306744 0.951740
vn 0.010001 -0.306744 0.951740
vn 0.010001 -0.306744 0.951740
vn -0.574950 -0.818188 0.000000
vn -0.574950 -0.818188 0.000000
vn -0.574950 -0.818188 0.000000
vn -0.574950 -0.818188 0.000000
vn 0.000000 -0.761843 -0.647762
vn 0.000000 -0.761843 -0.647762
vn 0.000000 -0.761843 -0.647762
vn 0.000000 -0.761843 -0.647762
vn 0.989177 -0.146726 0.000000
vn 0.989177 -0.146725 0.000000
vn 0.989177 -0.146725 0.000000
vn 0.989177 -0.146726 0.000000
vn 0.000000 -0.761843 0.647762
vn 0.000000 -0.761843 0.647762
vn 0.000000 -0.761843 0.647762
vn 0.000000 -0.761843 0.647762
vn -0.749489 -0.662017 0.000000
vn -0.749489 -0.662017 0.000000
vn -0.749489 -0.662017 0.000000
vn -0.749489 -0.662017 0.000000
vn 0.000000 1.000000 0.000000
vn 0.000000 1.000000 0.000000
vn 1.000000 0.000000 0.000000
vn 1.000000 0.000000 0.000000
vn 0.989177 -0.146725 -0.000000
vn 0.989177 -0.146725 0.000000
vn 0.412583 -0.910920 0.000000
vn 0.412583 -0.910920 0.000000
vn 0.860850 0.508859 0.000000
vn 0.860850 0.508859 0.000000
vn 0.000000 -1.000000 0.000000
vn 0.000000 -1.000000 0.000000
vn -0.574950 -0.818188 -0.000000
vn -0.574950 -0.818188 -0.000000
vn -0.999847 -0.017516 -0.000000
vn -0.999847 -0.017516 -0.000000
vn -0.749489 -0.662017 -0.000000
vn -0.749489 -0.662017 -0.000000
vn -1.000000 0.000000 0.000000
vn -1.000000 0.000000 0.000000
vn 0.000000 1.000000 0.000000
vn 0.000000 1.000000 0.000000
vn 1.000000 0.000000 0.000000
vn 1.000000 0.000000 0.000000
vn 0.989177 -0.146726 -0.000000
vn 0.989177 -0.146726 -0.000000
vn 0.412583 -0.910920 0.000000
vn 0.412583 -0.910920 0.000000
vn 0.860850 0.508859 0.000000
vn 0.860850 0.508859 0.000000
vn 0.000000 -1.000000 0.000000
vn 0.000000 -1.000000 0.000000
vn -0.574950 -0.818188 -0.000000
vn -0.574950 -0.818188 -0.000000
vn -0.999847 -0.017516 -0.000000
vn -0.999847 -0.017516 -0.000000
vn -0.749489 -0.662017 -0.000000
vn -0.749489 -0.662017 -0.000000
vn -1.000000 0.000000 0.000000
vn -1.000000 0.000000 0.000000
s off
g pasted__pCube11 group120
usemtl initialShadingGroup
f 1/1/1 2/2/2 4/4/3 3/3/4
s 1
f 21/28/5 22/29/6 6/6/7 5/5/8
s off
f 5/5/9 6/6/10 8/8/11 7/7/12
s 2
f 13/19/13 14/20/14 26/35/15 27/36/16
s 3
f 22/30/17 23/32/18 8/11/19 6/12/20
s 4
f 7/13/21 30/39/22 21/27/23 5/14/24
s off
f 17/23/25 18/24/26 10/16/27 9/15/28
s 5
f 18/24/29 24/33/30 25/34/31 10/16/32
s off
f 19/25/33 20/26/34 12/18/35 11/17/36
s 6
f 28/37/37 29/38/38 17/23/39 9/15/40
s off
f 9/15/41 10/16/42 14/20/43 13/19/44
s 7
f 10/16/45 25/34/46 26/35/47 14/20/48
s off
f 11/17/49 12/18/50 16/22/51 15/21/52
s 8
f 27/36/53 28/37/54 9/15/55 13/19/56
s off
f 7/7/57 8/8/58 18/24/59 17/23/60
s 9
f 8/8/61 23/31/62 24/33/63 18/24/64
s off
f 2/10/65 1/9/66 20/26/67 19/25/68
s 10
f 29/38/69 30/40/70 7/7/71 17/23/72
s 1
f 31/42/73 32/43/74 22/29/6 21/28/5
s 3
f 32/44/75 33/46/76 23/32/18 22/30/17
s 9
f 24/33/63 23/31/62 33/45/77 34/47/78
s 5
f 25/34/31 24/33/30 34/47/79 35/48/80
s 7
f 26/35/47 25/34/46 35/48/81 36/49/82
s 2
f 27/36/16 26/35/15 36/49/83 37/50/84
s 8
f 37/50/85 38/51/86 28/37/54 27/36/53
s 6
f 38/51/87 39/52/88 29/38/38 28/37/37
s 10
f 39/52/89 40/54/90 30/40/70 29/38/69
s 4
f 21/27/23 30/39/22 40/53/91 31/41/92
s 1
f 3/3/93 4/4/94 32/43/74 31/42/73
s 3
f 2/2/95 33/46/76 32/44/75 4/4/96
s 9
f 34/47/78 33/45/77 2/10/97 19/25/98
s 5
f 35/48/80 34/47/79 19/25/99 11/17/100
s 7
f 36/49/82 35/48/81 11/17/101 15/21/102
s 2
f 37/50/84 36/49/83 15/21/103 16/22/104
s 8
f 12/18/105 38/51/86 37/50/85 16/22/106
s 6
f 20/26/107 39/52/88 38/51/87 12/18/108
s 10
f 1/9/109 40/54/90 39/52/89 20/26/110
s 4
f 31/41/92 40/53/91 1/1/111 3/3/112
